<svg clip-rule="evenodd" fill-rule="evenodd" stroke-linejoin="round" stroke-miterlimit="2" viewBox="0 0 428 231" xmlns="http://www.w3.org/2000/svg"><g fill-rule="nonzero" transform="matrix(1.14842 0 0 1.14842 -30.6625 -16.6698)"><g fill="#005294"><path d="m50.9 203.4h-13c-2 0-3.6-.6-5-1.9s-2.1-2.8-2.1-4.6v-9.5c0-1.8.7-3.3 2.1-4.6 1.4-1.2 3.1-1.9 5-1.9h13c1.2 0 1.8.6 1.8 1.7s-.6 1.7-1.8 1.7h-13c-.9 0-1.8.3-2.4.9-.7.6-1 1.3-1 2.2v9.5c0 .9.3 1.6 1 2.2s1.5.9 2.4.9h13c1.2 0 1.8.6 1.8 1.7 0 1.2-.6 1.7-1.8 1.7"/><path d="m181.7 203.4h-13c-1.9 0-3.6-.6-5-1.9s-2.1-2.8-2.1-4.6v-9.5c0-1.8.7-3.3 2.1-4.6 1.4-1.2 3.1-1.9 5-1.9h13c1.2 0 1.8.6 1.8 1.7s-.6 1.7-1.8 1.7h-13c-.9 0-1.8.3-2.4.9-.7.6-1 1.3-1 2.2v9.5c0 .9.3 1.6 1 2.2s1.5.9 2.4.9h13c1.2 0 1.8.6 1.8 1.7 0 1.2-.6 1.7-1.8 1.7"/><path d="m80.9 202.5c-1.1.6-2.3.9-3.7.9h-11.3c-1.9 0-3.6-.6-5-1.9s-2.1-2.8-2.1-4.6.7-3.3 2.1-4.6 3.1-1.9 5-1.9h14.8v-3.1c0-.9-.3-1.6-1-2.2s-1.5-.9-2.4-.9h-13c-1.2 0-1.8-.6-1.8-1.7s.6-1.7 1.8-1.7h13c2 0 3.6.6 5 1.9s2.1 2.8 2.1 4.6v14.3c0 1.1-.6 1.7-1.8 1.7-.9.1-1.5-.2-1.7-.8m-.2-8.7h-14.8c-.9 0-1.8.3-2.4.9-.7.6-1 1.3-1 2.2s.3 1.6 1 2.2 1.5.9 2.4.9h11.3c.9 0 1.8-.3 2.4-.9.7-.6 1-1.3 1-2.2z"/><path d="m97.3 181.9c1.1-.6 2.3-.9 3.7-.9h5.6c1.2 0 1.8.6 1.8 1.7s-.6 1.7-1.8 1.7h-5.6c-.9 0-1.8.3-2.5.9s-1 1.3-1 2.2v14.3c0 1.1-.6 1.7-1.8 1.7s-1.8-.6-1.8-1.7v-19.1c0-1.1.6-1.7 1.8-1.7.7-.1 1.3.2 1.6.9"/><path d="m134.2 202.5c-1.1.6-2.3.9-3.7.9h-10.7c-2 0-3.6-.6-5-1.9s-2.1-2.9-2.1-4.7v-9.2c0-1.8.7-3.4 2.1-4.7s3.1-1.9 5-1.9h10.7c1.3 0 2.4.3 3.5.8v-10.9c0-1.2.6-1.7 1.8-1.7s1.8.6 1.8 1.7v30.8c0 1.2-.6 1.7-1.8 1.7-.8 0-1.4-.3-1.6-.9m-.2-14.9c0-.9-.3-1.7-1-2.3s-1.5-.9-2.4-.9h-10.7c-.9 0-1.8.3-2.4.9-.7.6-1 1.4-1 2.3v9.2c0 .9.3 1.6 1 2.2s1.5.9 2.4.9h10.7c.9 0 1.8-.3 2.4-.9.7-.6 1-1.4 1-2.2z"/><path d="m212.3 203.4h-13c-1.9 0-3.6-.6-5-1.9s-2.1-2.8-2.1-4.6v-9.5c0-1.8.7-3.3 2.1-4.6 1.4-1.2 3.1-1.9 5-1.9h13c2 0 3.6.6 5 1.9s2.1 2.8 2.1 4.6v9.5c0 1.9-.7 3.4-2.2 4.7-1.4 1.2-3 1.8-4.9 1.8m3.5-16c0-.9-.3-1.6-1-2.2s-1.5-.9-2.4-.9h-13c-.9 0-1.8.3-2.4.9-.7.6-1 1.3-1 2.2v9.5c0 .9.3 1.6 1 2.2s1.5.9 2.4.9h13c.9 0 1.8-.3 2.4-.9.7-.6 1-1.3 1-2.2z"/><path d="m232 181.9c1.1-.6 2.3-.9 3.7-.9h5.6c2.2 0 4 .7 5.3 2.1 1.4-1.4 3.1-2.1 5.3-2.1h5.6c1.9 0 3.6.6 5 1.9s2.1 2.8 2.1 4.6v14.3c0 1.1-.6 1.7-1.8 1.7s-1.8-.6-1.8-1.7v-14.3c0-.8-.3-1.6-1-2.2s-1.5-.9-2.4-.9h-5.6c-.9 0-1.8.3-2.4.9-.7.6-1 1.3-1 2.2v14.3c0 1.1-.6 1.7-1.8 1.7s-1.8-.6-1.8-1.7v-14.3c0-.9-.3-1.6-1-2.2s-1.5-.9-2.4-.9h-5.6c-1 0-1.8.3-2.5.9s-1 1.3-1 2.2v14.3c0 1.1-.6 1.7-1.8 1.7s-1.8-.6-1.8-1.7v-19.1c0-1.1.6-1.7 1.8-1.7.4-.1 1 .2 1.3.9"/><path d="m276.6 181.9c1.1-.6 2.3-.9 3.7-.9h11.5c2 0 3.6.7 5 1.9 1.4 1.3 2.1 2.9 2.1 4.7v9.2c0 1.9-.7 3.4-2.1 4.7s-3.1 1.9-5 1.9h-11.5c-1.3 0-2.4-.3-3.5-.8v10.3c0 1.2-.6 1.7-1.8 1.7s-1.8-.6-1.8-1.7v-30.2c0-1.2.6-1.7 1.8-1.7.8-.1 1.4.3 1.6.9m18.7 5.7c0-.9-.3-1.6-1-2.2s-1.5-.9-2.5-.9h-11.5c-.9 0-1.8.3-2.4.9-.7.6-1 1.4-1 2.2v9.2c0 .9.3 1.7 1 2.3s1.5.9 2.4.9h11.5c.9 0 1.8-.3 2.5-.9s1-1.4 1-2.3z"/><path d="m307.6 203.4c-1.2 0-1.8-.6-1.8-1.7v-30.8c0-1.2.6-1.7 1.8-1.7s1.8.6 1.8 1.7v30.8c0 1.1-.6 1.7-1.8 1.7"/><path d="m359.1 203.4c-1.8 0-3.4-.7-4.7-2.1s-1.9-3.1-1.9-5v-11.9h-4c-1.2 0-1.8-.6-1.8-1.7s.6-1.7 1.8-1.7h4v-6.6c0-1.1.6-1.7 1.8-1.7s1.8.6 1.8 1.7v6.6h4c1.2 0 1.8.6 1.8 1.7s-.6 1.7-1.8 1.7h-4v11.9c0 .9.3 1.8.9 2.4.6.7 1.4 1 2.2 1h-.2c1.1 0 1.7.6 1.7 1.8.1 1.3-.5 1.9-1.6 1.9"/><path d="m336.9 193.9h-14.8v3.1c0 .9.3 1.6 1 2.2s1.5.9 2.4.9h15.2c1.2 0 1.8.6 1.8 1.7s-.6 1.7-1.8 1.7h-15.2c-2 0-3.6-.6-5-1.9s-2.1-2.8-2.1-4.6v-9.5c0-1.8.7-3.3 2.1-4.6 1.4-1.2 3.1-1.9 5-1.9h11.3c2 0 3.6.6 5 1.9s2.1 2.8 2.1 4.6c0 1.9-.7 3.4-2.2 4.7-1.3 1.1-2.9 1.7-4.8 1.7m0-9.6h-11.3c-.9 0-1.8.3-2.4.9-.7.6-1 1.3-1 2.2v3.1h14.8c.9 0 1.8-.3 2.5-.9s1-1.3 1-2.2-.4-1.6-1.1-2.2c-.8-.6-1.6-.9-2.5-.9"/><path d="m386 193.9h-14.8v3.1c0 .9.3 1.6 1 2.2s1.5.9 2.4.9h15.2c1.2 0 1.8.6 1.8 1.7s-.6 1.7-1.8 1.7h-15.2c-1.9 0-3.6-.6-5-1.9s-2.1-2.8-2.1-4.6v-9.5c0-1.8.7-3.3 2.1-4.6 1.4-1.2 3.1-1.9 5-1.9h11.4c2 0 3.6.6 5 1.9s2.1 2.8 2.1 4.6c0 1.9-.7 3.4-2.2 4.7-1.4 1.1-3 1.7-4.9 1.7m0-9.6h-11.3c-.9 0-1.8.3-2.4.9-.7.6-1 1.3-1 2.2v3.1h14.7c.9 0 1.8-.3 2.5-.9s1-1.3 1-2.2-.4-1.6-1.1-2.2-1.5-.9-2.4-.9"/><path d="m30.6 151.3h140.5c9.1 0 16.9-2.9 23.4-8.8s9.8-12.9 9.8-21.3v-75.3c0-8.4-3.2-15.5-9.7-21.3s-14.3-8.7-23.5-8.7h-140.5z"/></g><path d="m393.3 151.3h-140.5c-9 0-16.9-2.9-23.4-8.8s-9.8-12.9-9.8-21.3v-75.3c0-8.4 3.2-15.5 9.7-21.3s14.3-8.7 23.5-8.7h140.5z" fill="#fa0"/></g></svg>