<?xml version="1.0" encoding="UTF-8"?>
<svg width="140px" height="80px" viewBox="0 0 140 80" version="1.1" xmlns="http://www.w3.org/2000/svg" xmlns:xlink="http://www.w3.org/1999/xlink">
    <!-- Generator: Sketch 52.5 (67469) - http://www.bohemiancoding.com/sketch -->
    <title>im/logo-pay/china-union-pay</title>
    <desc>Created with Sketch.</desc>
    <g id="im/logo-pay/china-union-pay" stroke="none" stroke-width="1" fill="none" fill-rule="evenodd">
        <path d="M87.0523235,14.1255491 C84.2662398,14.2121028 80.8593106,16.4063665 80.238812,19.1120759 L70.8222227,60.7838176 C70.2017238,63.5147922 71.8897931,65.7370064 74.6054144,65.7778987 L95.5238026,65.7778987 C98.1980315,65.6456003 100.796667,63.4765727 101.406564,60.8016076 L110.8235,19.1295236 C111.453915,16.3707859 109.725139,14.1306815 106.964367,14.1306815 L87.0523235,14.1255491 Z" id="path22" fill="#01798A"></path>
        <path d="M70.8222227,60.7838176 L80.2388161,19.1120759 C80.8593149,16.4063662 84.2662398,14.2121025 87.001699,14.1282887 L79.0847032,14.1231563 L64.8207652,14.1204167 C62.0776772,14.1765225 58.6263537,16.3861834 58.0060929,19.1120759 L48.586729,60.7838176 C47.96394,63.5147922 49.6544727,65.7370064 52.3683821,65.7778987 L74.6054141,65.7778987 C71.8897928,65.7370064 70.2017235,63.5147922 70.8222224,60.7838176" id="path20" fill="#024381"></path>
        <path d="M48.5867293,60.7838176 L58.006091,19.1120803 C58.6263496,16.3861834 62.0776753,14.1765269 64.8207633,14.1204211 L46.5477387,14.115631 C43.7893264,14.115631 40.2527247,16.3506075 39.6223414,19.1120803 L30.2029649,60.7838176 C30.1456432,61.0381373 30.1138419,61.2873621 30.0948685,61.53125 L30.0948685,62.3043403 C30.2792604,64.2950864 31.7994279,65.7447575 33.984598,65.777899 L52.3683823,65.777899 C49.6544729,65.7370067 47.9639403,63.5147925 48.5867293,60.7838179" id="path16" fill="#DD0228"></path>
        <path d="M65.2059243,44.4851705 L65.5517472,44.4851705 C65.8695231,44.4851705 66.0833111,44.378536 66.1835324,44.1673889 L67.0821267,42.8223687 L69.4885237,42.8223687 L68.9867232,43.707019 L71.8720054,43.707019 L71.5060019,45.0624731 L68.0727335,45.0624731 C67.6773134,45.6574281 67.1905614,45.9371342 66.6052959,45.9039845 L64.8170009,45.9039845 L65.2059237,44.4851705 L65.2059243,44.4851705 Z M64.810844,46.4278497 L71.1321273,46.4278497 L70.7291786,47.9002366 L68.1869845,47.9002366 L67.7990887,49.3214456 L70.2728705,49.3214456 L69.8699218,50.7936925 L67.3961399,50.7936925 L66.8214761,52.8937771 C66.6791777,53.2448108 66.866288,53.4026587 67.3797218,53.3668403 L69.3958263,53.3668403 L69.0222946,54.7349857 L65.1515374,54.7349857 C64.4178145,54.7349857 64.166127,54.315222 64.3962666,53.4737482 L65.1310105,50.7936925 L63.5497329,50.7936925 L63.9514163,49.3214456 L65.532932,49.3214456 L65.9204896,47.9002366 L64.4089229,47.9002366 L64.8108443,46.4278497 L64.810844,46.4278497 Z M74.9002705,42.8123436 L74.8007298,43.6742781 C74.8007298,43.6742781 75.9931532,42.7789202 77.0761188,42.7789202 L81.077888,42.7789202 L79.5475082,48.319451 C79.4206009,48.9528594 78.8763851,49.2678368 77.9151907,49.2678368 L73.3794652,49.2678368 L72.3170265,53.1583572 C72.2557962,53.3668359 72.3423387,53.4737438 72.5711752,53.4737438 L73.4636108,53.4737438 L73.1355755,54.681377 L70.8666875,54.681377 C69.9958021,54.681377 69.6335567,54.419461 69.7772247,53.8933365 L72.7794889,42.8123436 L74.9002659,42.8123436 L74.90027,42.8123436 L74.9002705,42.8123436 Z M78.2890651,44.378536 L74.7172647,44.378536 L74.290031,45.8735366 C74.290031,45.8735366 74.8848753,45.4440237 75.878906,45.4286618 C76.8701977,45.413131 78.0017332,45.4286618 78.0017332,45.4286618 L78.2890651,44.378536 L78.2890651,44.378536 Z M76.9950504,47.8466281 C77.2591203,47.8824465 77.4068889,47.7779337 77.4246766,47.5312749 L77.643254,46.7432029 L74.0659834,46.7432029 L73.7659955,47.8466281 L76.9950504,47.8466281 L76.9950504,47.8466281 Z M74.5821521,49.6366945 L76.6440957,49.6366945 L76.6057852,50.5290747 L77.1547903,50.5290747 C77.4322011,50.5290747 77.5697104,50.4402327 77.5697104,50.2649037 L77.7321893,49.6876011 L79.4459131,49.6876011 L79.2170763,50.5290747 C79.0234688,51.2309376 78.5103776,51.5970928 77.6764331,51.6329112 L76.5780764,51.6329112 L76.5729446,53.1583575 C76.5527641,53.4026546 76.773734,53.5271815 77.2286766,53.5271815 L78.261018,53.5271815 L77.9278469,54.734986 L75.4516723,54.734986 C74.7576295,54.7679981 74.4172807,54.4372518 74.4244626,53.7356604 L74.5821521,49.6366947 L74.5821521,49.6366945 Z" id="path24" fill="#FFFFFF"></path>
        <path d="M49.5960821,35.4307734 C49.3164123,36.8013158 48.6681064,37.8539745 47.6624802,38.6015071 C46.6659889,39.3363839 45.3806951,39.7049345 43.8071131,39.7049345 C42.3262292,39.7049345 41.2405629,39.3286187 40.5477521,38.5734544 C40.0672593,38.0368979 39.828228,37.3554916 39.828228,36.5316348 C39.828228,36.1909995 39.8690011,35.8248442 39.9503774,35.4307737 L41.626989,27.3451823 L44.1591962,27.3451823 L42.5054009,35.3392252 C42.454502,35.5604995 42.4341838,35.7664476 42.4368519,35.9520726 C42.4341838,36.3615381 42.5358438,36.6970766 42.7417649,36.9588547 C43.041752,37.3479995 43.5286416,37.5411184 44.2061951,37.5411184 C44.9853418,37.5411184 45.6273552,37.3505655 46.1256357,36.9664842 C46.6240186,36.585105 46.9493866,36.0436205 47.0955486,35.3392249 L48.7545446,27.345182 L51.2739235,27.345182 L49.5960821,35.4307734" id="path28" fill="#FFFFFF"></path>
        <path d="M60.2305469,32.2498436 L62.2137126,32.2498436 L60.6602776,39.4660076 L58.681012,39.4660076 L60.2305469,32.2498436 M60.8548079,29.6208668 L62.8556236,29.6208668 L62.4818891,31.3724471 L60.4812091,31.3724471 L60.8548079,29.6208668" id="path34" fill="#FFFFFF"></path>
        <path d="M63.9691689,38.9167579 C63.4504679,38.4209787 63.1885859,37.7522658 63.1860555,36.9030245 C63.1860555,36.7580055 63.1948804,36.5928371 63.2141047,36.4121711 C63.2332246,36.2290766 63.2574094,36.0510792 63.2916154,35.8859108 C63.5267822,34.7137889 64.0276955,33.78316 64.7992134,33.0965544 C65.5695349,32.4075205 66.4989158,32.061686 67.587009,32.061686 C68.4780791,32.061686 69.1847737,32.3109108 69.702312,32.8092561 C70.2195077,33.3102345 70.4787925,33.9864395 70.4787925,34.8461166 C70.4787925,34.9933571 70.4675018,35.1637605 70.4483485,35.3468213 C70.4254291,35.5324465 70.3977241,35.7104439 70.3655685,35.8859105 C70.1357047,37.0402424 69.6362967,37.9607442 68.8646053,38.6346587 C68.0929183,39.3135321 67.1662726,39.6514634 66.0857036,39.6514634 C65.1908755,39.6514634 64.4865693,39.4074734 63.9691689,38.9167576 M67.7484606,37.4877834 C68.0980501,37.1089368 68.3484367,36.534165 68.5009944,35.7689779 C68.5239139,35.6495144 68.5440944,35.5248521 68.5567506,35.4002918 C68.5694066,35.27816 68.5745383,35.1637603 68.5745383,35.0595208 C68.5745383,34.6145105 68.4613184,34.2688115 68.2338471,34.0246524 C68.0077455,33.7779603 67.6862075,33.6560687 67.2706028,33.6560687 C66.7212553,33.6560687 66.273837,33.84905 65.9232247,34.2356618 C65.5695349,34.6222758 65.3191483,35.2070368 65.1614547,35.9850863 C65.1399046,36.1045497 65.122121,36.2241486 65.1056986,36.3410813 C65.0930426,36.4605447 65.0892802,36.5724137 65.0916771,36.6740868 C65.0916771,37.1165666 65.204897,37.4573374 65.4323683,37.6987947 C65.6584699,37.9404234 65.9786383,38.0598866 66.3997173,38.0598866 C66.9514617,38.0598866 67.3988756,37.869196 67.7484606,37.4877831" id="path36" fill="#FFFFFF"></path>
        <path d="M87.0471917,14.1275321 L79.0846991,14.1231606 L87.001699,14.1325296 C87.0167478,14.1325296 87.0318006,14.1275326 87.0471917,14.1275326" id="path14" fill="#E02F41"></path>
        <path d="M79.0846991,14.129379 L64.9302233,14.115631 C64.8946498,14.115631 64.8577067,14.1200025 64.8207633,14.124382 L79.0846991,14.1293795" id="path18" fill="#2E4F7D"></path>
        <path d="M83.3457531,44.5462708 L83.8239535,42.8631123 L86.2416412,42.8631123 L86.1373111,43.4807831 C86.1373111,43.4807831 87.3728344,42.8631123 88.2625352,42.8631123 L91.2521475,42.8631123 L90.7770244,44.5462708 L90.3066908,44.5462708 L88.051482,52.4845828 L88.5218156,52.4845828 L88.0744014,54.0610734 L87.6040678,54.0610734 L87.4084101,54.7450083 L85.0670014,54.7450083 L85.2623209,54.0610734 L80.6431303,54.0610734 L81.0932834,52.4845828 L81.5560928,52.4845828 L83.8133518,44.5462708 L83.3457533,44.5462708 L83.3457531,44.5462708 Z M85.9543093,44.5462708 L85.3389422,46.6946913 C85.3389422,46.6946913 86.3918065,46.2905963 87.2992905,46.1761963 C87.4997417,45.4259597 87.7617573,44.5462705 87.7617573,44.5462705 L85.9543091,44.5462705 L85.9543093,44.5462708 Z M85.0540072,47.7017805 L84.4365858,49.9520476 C84.4365858,49.9520476 85.6033547,49.3774134 86.4041201,49.3290378 C86.6353535,48.45934 86.8669295,47.7017808 86.8669295,47.7017808 L85.0540072,47.7017808 L85.0540072,47.7017805 Z M85.5065531,52.4845828 L85.9693581,50.8522287 L84.1646491,50.8522287 L83.6994431,52.4845828 L85.5065531,52.4845828 L85.5065531,52.4845828 Z M91.354081,42.7589065 L93.6270735,42.7589065 L93.7235371,43.5977158 C93.7084842,43.8112582 93.8353915,43.9132381 94.1049357,43.9132381 L94.5065148,43.9132381 L94.1001463,45.3344471 L92.4295224,45.3344471 C91.7915782,45.3674592 91.4635389,45.1235734 91.433099,44.5970395 L91.354081,42.7589065 L91.354081,42.7589065 Z M98.0506063,45.8075105 L97.6185833,47.3331968 L95.2744394,47.3331968 L94.872518,48.7517352 L97.214269,48.7517352 L96.779507,50.2749263 L94.1712933,50.2749263 L93.5812384,51.1676155 L94.8578118,51.1676155 L95.152668,52.9549776 C95.187897,53.1329749 95.3455908,53.2194244 95.6151347,53.2194244 L96.0115821,53.2194244 L95.5949501,54.6913999 L94.1914779,54.6913999 C93.4642564,54.7272183 93.0883318,54.4830923 93.0575455,53.9568342 L92.7192468,52.3244759 L91.5576097,54.0610737 C91.2829338,54.5517558 90.8608277,54.7806932 90.2916423,54.7450086 L88.1482882,54.7450086 L88.5652584,53.2726237 L89.2339889,53.2726237 C89.5086649,53.2726237 89.737159,53.1505942 89.9430805,52.9040378 L91.7611345,50.2749263 L89.4169907,50.2749263 L89.8514104,48.7517352 L92.393947,48.7517352 L92.798261,47.3331968 L90.2533318,47.3331968 L90.6880897,45.8075105 L98.0506063,45.8075105 Z" id="path26" fill="#FFFFFF"></path>
        <path d="M51.9286284,32.2473129 L53.7170925,32.2473129 L53.5125407,33.2897755 L53.7692242,32.9923147 C54.3489823,32.3719755 55.0531487,32.0642184 55.8845272,32.0642184 C56.637061,32.0642184 57.1798091,32.2829953 57.5205356,32.7227711 C57.8560283,33.1627179 57.9475646,33.7704684 57.7888479,34.5510505 L56.803542,39.4685403 L54.9654788,39.4685403 L55.855246,35.011285 C55.9469202,34.5510508 55.921539,34.2077468 55.7801655,33.9864392 C55.6405352,33.7652692 55.3734191,33.6560687 54.9883273,33.6560687 C54.5154633,33.6560687 54.1175442,33.8033447 53.7934068,34.0958798 C53.4679021,34.3908076 53.2531913,34.8002734 53.1476313,35.3214368 L52.3277439,39.4685403 L50.4858496,39.4685403 L51.9286284,32.2473129" id="path30" fill="#FFFFFF"></path>
        <path d="M72.4388026,32.2473129 L74.2288054,32.2473129 L74.0256232,33.2897755 L74.2794337,32.9923147 C74.8595675,32.3719755 75.5662662,32.0642184 76.395079,32.0642184 C77.1476128,32.0642184 77.6914903,32.2829953 78.0294423,32.7227711 C78.3629516,33.1627179 78.4594152,33.7704684 78.2965937,34.5510505 L77.315219,39.4685403 L75.474592,39.4685403 L76.3646348,35.011285 C76.4559623,34.5510508 76.4306501,34.2077468 76.2907486,33.9864392 C76.1457151,33.7652692 75.8836954,33.6560687 75.5002466,33.6560687 C75.0271778,33.6560687 74.6307266,33.8033447 74.3026914,34.0958798 C73.977049,34.3908076 73.7612105,34.8002734 73.6596154,35.3214368 L72.8359344,39.4685403 L70.9963302,39.4685403 L72.438802,32.2473129" id="path32" fill="#FFFFFF"></path>
        <path d="M81.2865445,27.7721286 L86.4831337,27.7721286 C87.482292,27.7721286 88.2550063,27.998602 88.7862278,28.4433388 C89.3150524,28.8935504 89.5798072,29.5394455 89.5798072,30.3810247 L89.5798072,30.4063402 C89.5798072,30.5664463 89.5692055,30.7470757 89.5541527,30.9427632 C89.5284981,31.1360504 89.4953193,31.3317347 89.4525617,31.5352876 C89.2237249,32.649011 88.6921611,33.5440952 87.8712151,34.2229689 C87.0471917,34.8992781 86.0712914,35.2400492 84.9476225,35.2400492 L82.1608498,35.2400492 L81.2992005,39.4685384 L78.8863022,39.4685384 L81.2865442,27.7721288 M82.585348,33.2059931 L84.8966554,33.2059931 C85.4990239,33.2059931 85.9768821,33.0659355 86.3254399,32.7889334 C86.6712669,32.5092273 86.9001037,32.0821428 87.0270069,31.5024471 C87.0471914,31.3953679 87.0598474,31.2988939 87.0752385,31.2099455 C87.0831054,31.1261302 87.0930262,31.0419726 87.0930262,30.9608917 C87.0930262,30.5462604 86.9459384,30.2462366 86.6507397,30.0580787 C86.3558835,29.8671812 85.8934206,29.7758418 85.2523948,29.7758418 L83.2896496,29.7758418 L82.5853475,33.2059931" id="path38" fill="#FFFFFF"></path>
        <path d="M100.379354,40.8646029 C99.6165569,42.4866942 98.8896777,43.4324116 98.4627863,43.8723251 C98.0352103,44.3073108 97.1889522,45.3193277 95.1499282,45.2429011 L95.3254057,44.0047532 C97.0411838,43.4758576 97.9691951,41.0931292 98.4980197,40.0380777 L97.8675997,32.2676339 L99.1947973,32.2498458 L100.308203,32.2498458 L100.427924,37.1241945 L102.514837,32.2498458 L104.627748,32.2498458 L100.379354,40.8646029" id="path40" fill="#FFFFFF"></path>
        <path d="M94.4712809,32.8371711 L93.6318623,33.4144737 C92.7548179,32.7280061 91.9540524,32.3033163 90.4086239,33.0202655 C88.3032379,33.9965997 86.5440214,41.4849424 92.3405828,39.0184666 L92.6710146,39.4100064 L94.9515313,39.4685406 L96.4490746,32.6642374 L94.4712809,32.8371713 M93.1745273,36.5571547 C92.8081815,37.6378661 91.9899704,38.3522845 91.3492914,38.1489026 C90.708612,37.9505842 90.4797714,36.9079505 90.8509063,35.8248439 C91.2169138,34.7416037 92.0405949,34.0297163 92.6761422,34.2331316 C93.3168257,34.43145 93.5480591,35.4739126 93.1745273,36.5571547" id="path42" fill="#FFFFFF"></path>
    </g>
</svg>