<?xml version="1.0" encoding="UTF-8"?>
<svg width="140px" height="80px" viewBox="0 0 140 80" version="1.1" xmlns="http://www.w3.org/2000/svg" xmlns:xlink="http://www.w3.org/1999/xlink">
    <!-- Generator: Sketch 52.5 (67469) - http://www.bohemiancoding.com/sketch -->
    <title>im/logo-pay/discover</title>
    <desc>Created with Sketch.</desc>
    <defs>
        <radialGradient cx="100%" cy="100%" fx="100%" fy="100%" r="114.416111%" gradientTransform="translate(1.000000,1.000000),scale(0.986607,1.000000),rotate(-136.695855),scale(1.000000,0.626424),translate(-1.000000,-1.000000)" id="radialGradient-1">
            <stop stop-color="#F59900" offset="0%"></stop>
            <stop stop-color="#F39501" offset="21.0082086%"></stop>
            <stop stop-color="#CE3C0B" offset="90.8163265%"></stop>
            <stop stop-color="#A4420A" offset="100%"></stop>
        </radialGradient>
    </defs>
    <g id="im/logo-pay/discover" stroke="none" stroke-width="1" fill="none" fill-rule="evenodd">
        <path d="M20.8825412,31.38025 C26.2769882,31.38025 30.0368941,34.8389 30.0368941,39.80425 C30.0368941,42.2801 28.8865882,44.67405 26.9410824,46.26265 C25.3039059,47.6036 23.4394353,48.20485 20.8568471,48.20485 L16,48.20485 L16,31.38025 L20.8825412,31.38025 Z M24.7682824,44.01885 C25.9185882,43.00875 26.6103529,41.3948 26.6103529,39.77955 C26.6103529,38.1682 25.9185882,36.60235 24.7682824,35.5916 C23.6693647,34.6101 22.3655529,34.23115 20.2164706,34.23115 L19.3237647,34.23115 L19.3237647,45.35655 L20.2164706,45.35655 C22.3655529,45.35655 23.7227294,44.9503 24.7682824,44.01885 Z M31.5673412,31.38025 L34.8937412,31.38025 L34.8937412,48.20485 L31.5673412,48.20485 L31.5673412,31.38025 Z M43.0269176,37.8367 C46.8105412,39.2017 47.9318588,40.412 47.9318588,43.0848 C47.9318588,46.34195 45.5067294,48.60915 42.0505412,48.60915 C39.5193412,48.60915 37.6785882,47.6257 36.1461647,45.4066 L38.2952471,43.36495 C39.0614588,44.82615 40.3389176,45.60875 41.9253647,45.60875 C43.4096941,45.60875 44.5079529,44.59865 44.5079529,43.2356 C44.5079529,42.52905 44.1752471,41.92325 43.5111529,41.4949 C43.1764706,41.29145 42.5136941,40.98985 41.2112,40.5368 C38.0877176,39.42725 37.0158118,38.241 37.0158118,35.9231 C37.0158118,33.16905 39.3170824,31.10205 42.3344941,31.10205 C44.2042353,31.10205 45.9152,31.7332 47.3455059,32.96755 L45.6048941,35.2159 C44.7385412,34.25715 43.9196235,33.8535 42.9228235,33.8535 C41.4892235,33.8535 40.4449882,34.6582 40.4449882,35.71835 C40.4449882,36.62705 41.0306824,37.10805 43.0269176,37.8367 Z M48.9813647,39.80425 C48.9813647,34.91235 53.0212706,31 58.0606118,31 C59.4915765,31 60.6926118,31.3029 62.1525647,32.0335 L62.1525647,35.8945 C60.7696941,34.56005 59.5686588,34.0017 57.9822118,34.0017 C54.8620235,34.0017 52.4092235,36.5497 52.4092235,39.77955 C52.4092235,43.18685 54.7869176,45.5834 58.1370353,45.5834 C59.6450824,45.5834 60.8224,45.05365 62.1525647,43.74065 L62.1525647,47.6036 C60.6399059,48.30625 59.4138353,48.5838 57.9822118,48.5838 C52.9171765,48.5838 48.9813647,44.74945 48.9813647,39.80425 Z M88.5259294,42.68115 L93.1324235,31.38025 L96.7381647,31.38025 L89.3712,48.63645 L87.5818353,48.63645 L80.3446588,31.38025 L83.9787294,31.38025 L88.5259294,42.68115 Z M98.2422588,48.20485 L98.2422588,31.38025 L107.675953,31.38025 L107.675953,34.23115 L101.566024,34.23115 L101.566024,37.9654 L107.450635,37.9654 L107.450635,40.815 L101.566024,40.815 L101.566024,45.35655 L107.675953,45.35655 L107.675953,48.20485 L98.2422588,48.20485 Z M120.845835,36.34755 C120.845835,38.9235 119.466259,40.61415 116.960753,41.1166 L122.329506,48.20485 L118.238871,48.20485 L113.635012,41.44615 L113.200847,41.44615 L113.200847,48.20485 L109.8784,48.20485 L109.8784,31.38025 L114.811012,31.38025 C118.646682,31.38025 120.845835,33.19765 120.845835,36.34755 Z M114.172612,39.1263 C116.296659,39.1263 117.423247,38.21565 117.423247,36.5237 C117.423247,34.887 116.296659,34.0303 114.225318,34.0303 L113.200847,34.0303 L113.200847,39.1263 L114.172612,39.1263 Z M122.968565,32.0127 C122.968565,32.2181 122.852612,32.36955 122.641129,32.42545 L123.133929,33.03515 L122.697129,33.03515 L122.278118,32.46185 L122.278118,33.03515 L121.920376,33.03515 L121.920376,31.5564 L122.401318,31.5564 C122.763012,31.5564 122.968565,31.71825 122.968565,32.0127 Z M122.338071,32.21485 C122.517929,32.21485 122.610824,32.1492 122.610824,32.0179 C122.610824,31.89115 122.519247,31.8281 122.342024,31.8281 L122.278118,31.8281 L122.278118,32.21485 L122.338071,32.21485 Z M122.473129,31.0039 C123.182682,31.0039 123.763106,31.58695 123.763106,32.29285 C123.763106,33.00265 123.182682,33.58245 122.473129,33.58245 C121.752376,33.58245 121.168,33.0085 121.168,32.29285 C121.168,31.5772 121.745788,31.0039 122.473129,31.0039 Z M122.468518,33.35235 C123.0384,33.35235 123.502871,32.87655 123.502871,32.2948 C123.502871,31.71695 123.0384,31.23595 122.468518,31.23595 C121.890071,31.23595 121.427576,31.7059 121.427576,32.2948 C121.427576,32.88175 121.896,33.35235 122.468518,33.35235 Z" id="Combined-Shape" fill="#1A1919"></path>
        <ellipse id="Oval-26" fill="url(#radialGradient-1)" cx="72.3760941" cy="40.10485" rx="9.22352941" ry="9.1"></ellipse>
    </g>
</svg>