<svg id="artwork" xmlns="http://www.w3.org/2000/svg" width="608.9" height="292.3" viewBox="0 0 608.9 292.3"><defs><style>.cls-1{fill:#0c2074;}.cls-2{fill:#0075c9;}</style></defs><title>Elavon primary logo-artboard</title><path d="M491.6,289.8h17.7V228.9c0-19.4,10.4-33.8,31.9-33.8,13.6,0,21.9,8.6,21.9,21.7v73h17.7V218.9c0-23.1-8.8-39.4-37.1-39.4-15.4,0-27.5,6.3-35,19.6h-.4V182H491.6V289.8ZM386.8,235.9c0-26.3,15-40.9,33.6-40.9S454,209.6,454,235.9c0,26.1-15,40.7-33.6,40.7s-33.7-14.6-33.6-40.7m-18.8,0c0,31.5,18.1,56.3,52.4,56.3s52.4-24.8,52.4-56.3c0-31.7-18.1-56.5-52.4-56.5S368,204.2,368,235.9m-5.1-54H344.3l-29.4,89.9h-.4l-30.2-89.9H264.5l40,107.8h19ZM262.2,275.6a14.3619,14.3619,0,0,1-5.4,1c-5.6,0-5.6-3.8-5.6-12.1V209c0-25.2-21.1-29.6-40.5-29.6-24,0-44.6,9.4-45.7,36.1h17.7c.8-15.9,11.9-20.4,26.9-20.4,11.3,0,24,2.5,24,17.9,0,13.3-16.7,12.1-36.3,15.9-18.4,3.5-36.5,8.8-36.5,33.2,0,21.5,16.1,30.2,35.7,30.2,15,0,28.2-5.2,38-16.7,0,11.7,5.8,16.7,15,16.7,5.6,0,9.6-1,12.7-2.9Zm-28.8-23.4c0,9.8-9.6,24.4-33,24.4-10.8,0-20.9-4.2-20.9-15.9,0-13.1,10-17.3,21.7-19.4,11.9-2.1,25.2-2.3,32.1-7.3ZM123.8,289.8h17.7v-149H123.8ZM0,289.8H103.4V273.1H19.8V221.6H97.2V204.9H19.8V157.5h83V140.8H0Z"/><path class="cls-1" d="M442.1,68.1a151.1216,151.1216,0,0,0-.4-17.8c-53,4.5-127.4,38.5-196.3,94-7.8,6.3-15.3,12.6-22.4,19h4.4c1.3-1,2.5-2.1,3.8-3.2,72.5-58.3,151.7-92.2,205.5-92.2C438.5,67.9,440.3,68,442.1,68.1Z"/><path class="cls-1" d="M500.7,65.7c-7.6-7.8-18.4-12.4-31.3-14.5a218.2141,218.2141,0,0,1,1.4,22.9,48.5465,48.5465,0,0,1,16.1,10.8c9.8,10,14.2,23.7,13.2,40.8-.7,11.6-3.9,24.3-9.3,37.7h2.9c11.7-21.3,18.6-41.3,19.7-58.7C514.3,88.3,510,75.2,500.7,65.7Z"/><path class="cls-2" d="M457.2,21C452.5,7.1,445.6,0,436.7,0h-.1C420.3,0,400,24,379.8,65.4c3.5-1.3,7-2.5,10.4-3.7C404.3,38,417.7,24,427.4,24h.9c5.4.5,9.4,5.7,11.7,15.5,6,25.2-.6,74.6-15.3,126.7,11.3.7,21.2,3.5,29.5,8.2C465.5,109.5,467.5,51.3,457.2,21Z"/><path class="cls-2" d="M368.6,90.2c-4.6,10.9-9.1,22.6-13.6,35.2-4.4,12.4-8.5,25.1-12.3,37.9H347a591.417,591.417,0,0,1,21.3-58c2.7-6.2,5.4-12,8.1-17.7C373.8,88.4,371.2,89.2,368.6,90.2Z"/><path d="M605,273.6a8.6313,8.6313,0,1,1-11.8,12.6l-.4-.4a8.6274,8.6274,0,0,1,6-14.7,9.04,9.04,0,0,1,6.2,2.5Zm1-1a10.0191,10.0191,0,1,0,2.9,7,10.2728,10.2728,0,0,0-2.9-7Zm-5.6,6.6a3.7221,3.7221,0,0,1-1.8.2h-1.7v-4h1.7a4.4945,4.4945,0,0,1,2.3.4,1.7314,1.7314,0,0,1,.7,1.6,1.7833,1.7833,0,0,1-1.2,1.8Zm-5.5,5.9h1.9v-4.3h1.5a4.3068,4.3068,0,0,1,2.2.4,2.7293,2.7293,0,0,1,1,2.5v1.5h1.8l-.1-.1a1.2683,1.2683,0,0,1-.1-.6v-1.6a2.7155,2.7155,0,0,0-.6-1.7,2.865,2.865,0,0,0-1.9-1.1,4.2839,4.2839,0,0,0,1.6-.5,2.6557,2.6557,0,0,0,1.1-2.2,2.8352,2.8352,0,0,0-1.7-2.8,10.3226,10.3226,0,0,0-3-.4h-3.8Z"/></svg>