<?xml version="1.0" encoding="UTF-8" standalone="no"?>
<!-- Created with Inkscape (http://www.inkscape.org/) -->

<svg
   xmlns:dc="http://purl.org/dc/elements/1.1/"
   xmlns:cc="http://creativecommons.org/ns#"
   xmlns:rdf="http://www.w3.org/1999/02/22-rdf-syntax-ns#"
   xmlns:svg="http://www.w3.org/2000/svg"
   xmlns="http://www.w3.org/2000/svg"
   version="1.1"
   width="892.91339"
   height="452.12598"
   id="svg54730">
  <defs
     id="defs54732" />
  <metadata
     id="metadata54735">
    <rdf:RDF>
      <cc:Work
         rdf:about="">
        <dc:format>image/svg+xml</dc:format>
        <dc:type
           rdf:resource="http://purl.org/dc/dcmitype/StillImage" />
        <dc:title></dc:title>
      </cc:Work>
    </rdf:RDF>
  </metadata>
  <g
     transform="translate(-9.7433497,-101.19694)"
     id="layer1">
    <g
       transform="matrix(8.338959,0,0,8.338959,-2402.8716,-2801.6787)"
       id="g54757">
      <path
         d="m 395.97089,394.64183 -6.78,0 0,6.7825 6.78,0 0,-6.7825 z"
         id="path54522"
         style="fill:#f2581a;fill-opacity:1;fill-rule:nonzero;stroke:none" />
      <path
         d="m 375.43089,364.44183 4.03875,30.315 4.03375,-30.315 6.29375,0 -5.88625,36.9825 -8.94875,0 -5.82375,-36.9825 6.2925,0 z"
         id="path54524"
         style="fill:#f2581a;fill-opacity:1;fill-rule:nonzero;stroke:none" />
      <path
         d="m 293.23214,364.44183 -3.48875,0 0,4.915 3.48875,0 0,32.0675 6.13375,0 0,-32.0675 4.30875,0 0,-4.915 -4.30875,0 0,-7.5175 c 0,-1.09625 0.2275,-1.93625 0.75625,-2.50875 0.53125,-0.57125 1.34625,-0.84125 2.44625,-0.84125 l 1.105,0 0,-5.03 -2.21875,0 c -2.72625,0 -5.35125,0.57625 -6.60125,1.7625 -1.2475,1.185 -1.62125,3.02625 -1.62125,5.65125 l 0,8.48375 z"
         id="path54526"
         style="fill:#f2581a;fill-opacity:1;fill-rule:nonzero;stroke:none" />
      <path
         d="m 305.58964,401.42433 6.14875,0 0,-36.9825 -6.14875,0 0,36.9825 z"
         id="path54528"
         style="fill:#f2581a;fill-opacity:1;fill-rule:nonzero;stroke:none" />
      <path
         d="m 340.12714,385.02683 12.8175,0 0,-11.3975 c -0.0163,-6.81875 -3.295,-9.61375 -9.50375,-9.61375 -6.46,0 -9.48625,2.78875 -9.48625,9.6575 l 0,18.73 c 0.0175,6.25 3.8025,9.48125 9.4825,9.48125 5.68,0 9.49125,-2.66 9.5075,-9.48125 l 0,-2.96125 -5.93875,0 0.007,3.51 c 0,2.5025 -0.9375,4.235 -3.4525,4.235 -2.51625,0 -3.43375,-1.7475 -3.43375,-4.23875 l 0,-7.92125 z m 0,-12.625 c 0,-2.08625 0.5425,-4.24625 3.41625,-4.24625 2.87375,0 3.4575,2.12875 3.4575,4.24375 l 0,7.64375 -6.87375,0 0,-7.64125 z"
         id="path54530"
         style="fill:#f2581a;fill-opacity:1;fill-rule:nonzero;stroke:none" />
      <path
         d="m 325.56339,380.39933 c -4.66375,-4.05125 -5.0275,-4.63625 -5.0275,-7.65375 0,-2.5725 0.22375,-4.1375 2.53375,-4.1375 2.3075,0 2.61,1.54625 2.61,4.16625 l 0,3.41375 5.925,0 0,-5.57 c -0.0188,-4.37375 -3.385,-6.59875 -8.67125,-6.59875 -5.19875,0 -8.59125,1.73125 -8.62,8.72625 -0.004,1.1875 10e-4,1.1875 0,0.72875 0.01,2.19875 0.02,5.6825 5.455,10.34625 l 1.5575,1.33375 c 4.00375,3.3775 4.44375,3.785 4.42375,7.80125 -0.002,2.475 -0.15375,4.35125 -2.7525,4.35125 -2.59875,0 -2.76125,-1.89 -2.76125,-3.0575 l 0,-4.73125 -6.22,0 0,4.8825 c 0,6.0075 3.90875,7.49375 8.97375,7.49375 5.06875,0 8.985,-1.5 8.985,-9.23125 l 0,-0.6425 c -0.0138,-5.4 -0.99125,-6.84875 -6.41125,-11.62125"
         id="path54532"
         style="fill:#f2581a;fill-opacity:1;fill-rule:nonzero;stroke:none" />
      <path
         d="m 361.17339,368.24933 0,-3.8075 -5.6025,0 0,36.98125 6.045,0 0,-25.7725 c -0.004,-1.9925 0.64625,-3.30375 1.77625,-4.07875 1.07,-0.7375 2.3875,-0.9875 4.06125,-1.01125 l 0,-6.5425 c -3.2075,0.065 -4.59,0.69875 -6.2175,4.09625 l -0.0625,0.135 z"
         id="path54534"
         style="fill:#f2581a;fill-opacity:1;fill-rule:nonzero;stroke:none" />
    </g>
  </g>
</svg>
