<?xml version="1.0" encoding="UTF-8"?>
<svg width="140px" height="80px" viewBox="0 0 140 80" version="1.1" xmlns="http://www.w3.org/2000/svg" xmlns:xlink="http://www.w3.org/1999/xlink">
    <!-- Generator: Sketch 52.5 (67469) - http://www.bohemiancoding.com/sketch -->
    <title>im/logo-pay/maestro</title>
    <desc>Created with Sketch.</desc>
    <g id="im/logo-pay/maestro" stroke="none" stroke-width="1" fill="none" fill-rule="evenodd">
        <path d="M96.7120591,68.7021115 L96.7120591,68.8565085 L96.85463,68.8565085 C96.8874804,68.8565085 96.9131038,68.8499384 96.932814,68.8374552 C96.9518673,68.8249721 96.9617224,68.8052618 96.9617224,68.7783245 C96.9617224,68.7533581 96.9518673,68.7343049 96.932814,68.7211647 C96.9131038,68.7086816 96.8874804,68.7021115 96.85463,68.7021115 L96.7120591,68.7021115 Z M96.855944,68.5937051 C96.930843,68.5937051 96.9880027,68.6101303 97.0280803,68.6429807 C97.0688148,68.6764881 97.0885251,68.7211647 97.0885251,68.7783245 C97.0885251,68.8262861 97.0727569,68.8663636 97.0405634,68.897243 C97.00837,68.9281224 96.9630364,68.9471757 96.9032486,68.9544028 L97.0931241,69.1731866 L96.9446402,69.1731866 L96.7692189,68.9563738 L96.7120591,68.9563738 L96.7120591,69.1731866 L96.5885415,69.1731866 L96.5885415,68.5937051 L96.855944,68.5937051 Z M96.8191515,69.3722602 C96.8868234,69.3722602 96.9492392,69.3597771 97.007713,69.3341537 C97.0661868,69.3085304 97.1167764,69.2737089 97.160796,69.2303464 C97.2048156,69.1863268 97.23898,69.1344231 97.2639463,69.0752923 C97.2889127,69.0161616 97.3013958,68.9530887 97.3013958,68.8854169 C97.3013958,68.818402 97.2889127,68.7553292 97.2639463,68.6961984 C97.23898,68.6370676 97.2048156,68.5851639 97.160796,68.5411444 C97.1167764,68.4977818 97.0661868,68.4636174 97.007713,68.437994 C96.9492392,68.4130277 96.8868234,68.4005445 96.8191515,68.4005445 C96.7508227,68.4005445 96.6870928,68.4130277 96.627305,68.437994 C96.5675173,68.4636174 96.5162706,68.4977818 96.472251,68.5411444 C96.4282314,68.5851639 96.394067,68.6370676 96.3691007,68.6961984 C96.3441344,68.7553292 96.3316512,68.818402 96.3316512,68.8854169 C96.3316512,68.9530887 96.3441344,69.0161616 96.3691007,69.0752923 C96.394067,69.1344231 96.4282314,69.1863268 96.472251,69.2303464 C96.5162706,69.2737089 96.5675173,69.3085304 96.627305,69.3341537 C96.6870928,69.3597771 96.7508227,69.3722602 96.8191515,69.3722602 Z M96.8191515,68.2612587 C96.9071907,68.2612587 96.9893168,68.2776839 97.0668438,68.3105344 C97.1437138,68.3433848 97.2107287,68.3874044 97.2685454,68.4445641 C97.3257052,68.5010668 97.3716958,68.5674247 97.4045462,68.6429807 C97.4373966,68.7191937 97.4544788,68.8000057 97.4544788,68.8854169 C97.4544788,68.971485 97.4373966,69.052297 97.4045462,69.127853 C97.3716958,69.202752 97.3257052,69.2691099 97.2685454,69.3256126 C97.2107287,69.3821153 97.1437138,69.4267919 97.0668438,69.4602994 C96.9893168,69.4931498 96.9071907,69.510232 96.8191515,69.510232 C96.7297984,69.510232 96.6457013,69.4931498 96.5675173,69.4602994 C96.4899903,69.4267919 96.4223184,69.3821153 96.3651586,69.3256126 C96.3079989,69.2691099 96.2626653,69.202752 96.2298149,69.127853 C96.1963074,69.052297 96.1798822,68.971485 96.1798822,68.8854169 C96.1798822,68.8000057 96.1963074,68.7191937 96.2298149,68.6429807 C96.2626653,68.5674247 96.3079989,68.5010668 96.3651586,68.4445641 C96.4223184,68.3874044 96.4899903,68.3433848 96.5675173,68.3105344 C96.6457013,68.2776839 96.7297984,68.2612587 96.8191515,68.2612587 Z M87.3720253,62.7450148 C87.6479689,62.7450148 88.041517,62.7975754 88.343084,62.915837 L87.9232555,64.2016028 C87.6348287,64.0833412 87.345745,64.0439207 87.0704584,64.0439207 C86.1782407,64.0439207 85.7321319,64.6214312 85.7321319,65.6581908 L85.7321319,69.1745006 L84.3675251,69.1745006 L84.3675251,62.9026968 L85.7189917,62.9026968 L85.7189917,63.6635127 C86.0731194,63.1122826 86.584929,62.7450148 87.3720253,62.7450148 Z M82.6494477,64.1490421 L80.4189036,64.1490421 L80.4189036,66.9833771 C80.4189036,67.6127913 80.6422865,68.0332767 81.3242614,68.0332767 C81.678389,68.0332767 82.1244979,67.9150152 82.5318432,67.6784921 L82.9253913,68.8466534 C82.4924227,69.1482203 81.8097908,69.3321827 81.21914,69.3321827 C79.605527,69.3321827 79.0411566,68.4662454 79.0411566,67.0096574 L79.0411566,64.1490421 L77.768531,64.1490421 L77.768531,62.9026968 L79.0411566,62.9026968 L79.0411566,61 L80.4189036,61 L80.4189036,62.9026968 L82.6494477,62.9026968 L82.6494477,64.1490421 Z M76.0925022,64.5031697 C75.7120942,64.2673036 74.9381381,63.9657367 74.1372447,63.9657367 C73.3895689,63.9657367 72.9434601,64.2410233 72.9434601,64.7002723 C72.9434601,65.1201007 73.4158493,65.2383623 74.0065,65.3165463 L74.6490543,65.4085275 C76.0136611,65.6056301 76.8401779,66.1831406 76.8401779,67.284944 C76.8401779,68.4787286 75.7909352,69.3321827 73.9802196,69.3321827 C72.9566003,69.3321827 72.0118219,69.0693793 71.2641462,68.5181491 L71.9067006,67.4557662 C72.3659496,67.8098938 73.0485815,68.1114608 73.9933598,68.1114608 C74.9249979,68.1114608 75.4236674,67.8361742 75.4236674,67.3506448 C75.4236674,66.9965172 75.0688828,66.7994147 74.3212071,66.6949503 L73.6779957,66.6029691 C72.2746254,66.4058665 71.5131524,65.7757953 71.5131524,64.752833 C71.5131524,63.5058307 72.5367718,62.7450148 74.1247615,62.7450148 C75.1214435,62.7450148 76.0268013,62.9683977 76.6831529,63.4013663 L76.0925022,64.5031697 Z M65.6749743,65.4873685 C65.8188592,64.5820107 66.3700893,63.9657367 67.341148,63.9657367 C68.2202255,63.9657367 68.7845958,64.5163099 68.9284807,65.4873685 L65.6749743,65.4873685 Z M70.3456482,66.0385987 C70.332508,64.0833412 69.1255833,62.7450148 67.3674284,62.7450148 C65.5304324,62.7450148 64.2446666,64.0833412 64.2446666,66.0385987 C64.2446666,68.0332767 65.5829931,69.3321827 67.4594096,69.3321827 C68.4041879,69.3321827 69.2701252,69.0956596 70.0309411,68.4531052 L69.3614494,67.442626 C68.8364995,67.8624545 68.1676648,68.0983206 67.5375936,68.0983206 C66.6585161,68.0983206 65.8582797,67.6916323 65.6611771,66.5635486 L70.3193679,66.5635486 C70.332508,66.3927263 70.3456482,66.2225611 70.3456482,66.0385987 Z M92.1195692,64.0281525 C91.8403406,64.0281525 91.5801652,64.0774281 91.3403571,64.1753224 C91.0998919,64.2738737 90.8929342,64.4111885 90.71817,64.5879238 C90.5434057,64.7646591 90.4060909,64.9768729 90.3055686,65.2232511 C90.2050463,65.4702863 90.1551136,65.7416309 90.1551136,66.0385987 C90.1551136,66.3355666 90.2050463,66.6075681 90.3055686,66.8539464 C90.4060909,67.1003246 90.5434057,67.3125383 90.71817,67.4892737 C90.8929342,67.666009 91.0998919,67.8033237 91.3403571,67.901875 C91.5801652,68.0004263 91.8403406,68.049045 92.1195692,68.049045 C92.3987979,68.049045 92.6589733,68.0004263 92.8987814,67.901875 C93.1392465,67.8033237 93.3475183,67.666009 93.5242536,67.4892737 C93.7009889,67.3125383 93.8396177,67.1003246 93.94014,66.8539464 C94.0406623,66.6075681 94.091252,66.3355666 94.091252,66.0385987 C94.091252,65.7416309 94.0406623,65.4702863 93.94014,65.2232511 C93.8396177,64.9768729 93.7009889,64.7646591 93.5242536,64.5879238 C93.3475183,64.4111885 93.1392465,64.2738737 92.8987814,64.1753224 C92.6589733,64.0774281 92.3987979,64.0281525 92.1195692,64.0281525 Z M92.1195692,62.7377877 C92.6044416,62.7377877 93.0531784,62.8218848 93.4657798,62.990079 C93.8783812,63.1582732 94.2351368,63.3895402 94.5360468,63.68388 C94.8376137,63.9788769 95.0734798,64.3270914 95.243645,64.7285236 C95.4138102,65.1306129 95.4992213,65.5668666 95.4992213,66.0385987 C95.4992213,66.5103309 95.4138102,66.9465846 95.243645,67.3480168 C95.0734798,67.7501061 94.8376137,68.0983206 94.5360468,68.3933174 C94.2351368,68.6876573 93.8783812,68.9189243 93.4657798,69.0871185 C93.0531784,69.2553127 92.6044416,69.3394098 92.1195692,69.3394098 C91.6353539,69.3394098 91.1866171,69.2553127 90.7740157,69.0871185 C90.3607573,68.9189243 90.0053157,68.6876573 89.7063768,68.3933174 C89.4067809,68.0983206 89.1722288,67.7501061 89.0020636,67.3480168 C88.8318984,66.9465846 88.7464872,66.5103309 88.7464872,66.0385987 C88.7464872,65.5668666 88.8318984,65.1306129 89.0020636,64.7285236 C89.1722288,64.3270914 89.4067809,63.9788769 89.7063768,63.68388 C90.0053157,63.3895402 90.3607573,63.1582732 90.7740157,62.990079 C91.1866171,62.8218848 91.6353539,62.7377877 92.1195692,62.7377877 Z M57.8427751,66.0385987 C57.8427751,64.9361383 58.5641705,64.0314375 59.7448149,64.0314375 C60.8735556,64.0314375 61.6343716,64.8967178 61.6343716,66.0385987 C61.6343716,67.1798226 60.8735556,68.0457599 59.7448149,68.0457599 C58.5641705,68.0457599 57.8427751,67.1404021 57.8427751,66.0385987 Z M62.9201373,66.0385987 L62.9201373,62.9026968 L61.5555305,62.9026968 L61.5555305,63.6635127 C61.1225619,63.0991424 60.4668673,62.7450148 59.5746497,62.7450148 C57.8158378,62.7450148 56.4387478,64.1227617 56.4387478,66.0385987 C56.4387478,67.9544357 57.8158378,69.3321827 59.5746497,69.3321827 C60.4668673,69.3321827 61.1225619,68.9773981 61.5555305,68.4136847 L61.5555305,69.1745006 L62.9201373,69.1745006 L62.9201373,66.0385987 Z M55.231166,69.1745006 L55.231166,65.2383623 C55.231166,63.7554939 54.2863877,62.7581549 52.7647559,62.7450148 C51.9645194,62.7318746 51.1373456,62.9815378 50.5604921,63.8606153 C50.1268665,63.1648432 49.4448916,62.7450148 48.4869731,62.7450148 C47.8174813,62.7450148 47.1617868,62.9421173 46.6499771,63.6766529 L46.6499771,62.9026968 L45.2853703,62.9026968 L45.2853703,69.1745006 L46.6631173,69.1745006 L46.6631173,65.6976113 C46.6631173,64.6082911 47.2669082,64.0314375 48.1985463,64.0314375 C49.1039041,64.0314375 49.5631531,64.6214312 49.5631531,65.6844711 L49.5631531,69.1745006 L50.9409001,69.1745006 L50.9409001,65.6976113 C50.9409001,64.6082911 51.5703143,64.0314375 52.4756721,64.0314375 C53.4073103,64.0314375 53.8534191,64.6214312 53.8534191,65.6844711 L53.8534191,69.1745006 L55.231166,69.1745006 L55.231166,69.1745006 Z" id="text" fill="#000000"></path>
        <polygon id="Fill-2" fill="#7375CF" points="60.0135314 52.5734984 80.7093014 52.5734984 80.7093014 15.3828712 60.0135314 15.3828712"></polygon>
        <path d="M61.3275486,33.9788418 C61.3275486,26.4337554 64.8602837,19.7138717 70.3614164,15.3828712 C66.3385529,12.2160899 61.2618477,10.3265333 55.7442897,10.3265333 C42.6823023,10.3265333 32.0939522,20.9155404 32.0939522,33.9788418 C32.0939522,47.0414862 42.6823023,57.6304933 55.7442897,57.6304933 C61.2618477,57.6304933 66.3385529,55.7409367 70.3614164,52.5741554 C64.8602837,48.2431549 61.3275486,41.5232712 61.3275486,33.9788418" id="Fill-3" fill="#EB001B"></path>
        <path d="M107.890403,48.634732 L107.890403,47.716891 L107.650595,47.716891 L107.375308,48.3482762 L107.099365,47.716891 L106.859557,47.716891 L106.859557,48.634732 L107.029065,48.634732 L107.029065,47.9422449 L107.287269,48.5394657 L107.46269,48.5394657 L107.721552,47.9409309 L107.721552,48.634732 L107.890403,48.634732 Z M106.372713,48.634732 L106.372713,47.873259 L106.679536,47.873259 L106.679536,47.718205 L105.897696,47.718205 L105.897696,47.873259 L106.204519,47.873259 L106.204519,48.634732 L106.372713,48.634732 L106.372713,48.634732 Z" id="Fill-4" fill="#00A1DF"></path>
        <path d="M108.628881,33.9788418 C108.628881,47.0414862 98.0405305,57.6304933 84.9785431,57.6304933 C79.4609851,57.6304933 74.3842799,55.7409367 70.3614164,52.5741554 C75.8625492,48.2431549 79.3952843,41.5232712 79.3952843,33.9788418 C79.3952843,26.4337554 75.8625492,19.7138717 70.3614164,15.3828712 C74.3842799,12.2160899 79.4609851,10.3265333 84.9785431,10.3265333 C98.0405305,10.3265333 108.628881,20.9155404 108.628881,33.9788418" id="Fill-5" fill="#00A2E5"></path>
    </g>
</svg>