<svg width="112" height="30" viewBox="0 0 112 30" fill="none" xmlns="http://www.w3.org/2000/svg" preserveAspectRatio="xMidYMid meet"><path fill-rule="evenodd" clip-rule="evenodd" d="M7.681 17.312c-1.293-.746-2.328-1.094-3.442-1.094-2.319 0-4.16 1.552-4.16 3.532 0 4.13 6.687 3.214 6.687 6.278 0 1.324-1.144 2.239-2.726 2.239-1.234 0-2.349-.319-4.04-1.174v1.343c1.323.806 2.557 1.174 3.87 1.174 2.378 0 4.219-1.552 4.219-3.552 0-4.477-6.686-3.293-6.686-6.398 0-1.233 1.204-2.178 2.756-2.178 1.144 0 2.09.368 3.532 1.323v-1.493m21.581-.826h-1.383L23.42 26.974l-3.93-10.486h-.746l-4.04 10.486-4.387-10.486H8.965l5.512 13.123h.627l3.99-10.457 3.95 10.457h.666l5.562-13.123zM32.655 9.8h-1.383v2.348h1.383V9.8zm0 6.677h-1.383V29.35h1.383V16.477zm10.865.835c-1.294-.746-2.319-1.094-3.443-1.094-2.318 0-4.159 1.552-4.159 3.532 0 4.13 6.676 3.214 6.676 6.278 0 1.324-1.144 2.239-2.726 2.239-1.234 0-2.348-.319-4.04-1.174v1.343c1.324.806 2.548 1.174 3.87 1.174 2.379 0 4.22-1.552 4.22-3.552 0-4.477-6.687-3.293-6.687-6.398 0-1.233 1.204-2.178 2.756-2.178 1.145 0 2.09.368 3.523 1.323v-1.493m10.148 0c-1.293-.746-2.328-1.094-3.442-1.094-2.319 0-4.16 1.552-4.16 3.532 0 4.13 6.677 3.214 6.677 6.278 0 1.324-1.144 2.239-2.726 2.239-1.234 0-2.348-.319-4.04-1.174v1.343c1.324.806 2.547 1.174 3.87 1.174 2.378 0 4.22-1.552 4.22-3.552 0-4.477-6.687-3.293-6.687-6.398 0-1.233 1.204-2.178 2.756-2.178 1.144 0 2.09.368 3.532 1.323v-1.493zm14.567 8.428c-1.841.686-2.727.915-3.732.915-2.378 0-3.96-1.552-3.96-3.9 0-2.328 1.602-3.81 4.1-3.81 1.034 0 2.298.317 3.383.885v-3.095c-1.374-.517-3.095-.855-4.448-.855-4.358 0-7.482 2.865-7.482 6.915 0 4.129 3.015 6.825 7.661 6.825 1.403 0 2.806-.289 4.478-.886V25.74zm9.869.408c-.686.626-1.522 1.005-2.298 1.005-.746 0-1.353-.627-1.353-1.403 0-1.324 1.174-1.89 3.642-2.786v3.184h.01zm6.418-.06c-.975.686-1.293.746-1.582.746-.428 0-.687-.259-.687-.915v-6.02c0-2.895-2.268-4.01-5.591-4.01-2.09 0-4.02.548-5.731 1.602v3.383c1.323-1.343 3.214-2.208 4.875-2.208 1.801 0 2.378.974 2.298 2.208-5.531 1.722-7.86 2.348-7.86 5.502 0 1.662 1.572 3.244 3.702 3.244 1.432 0 2.756-.398 4.357-1.492.289 1.064.946 1.492 2.319 1.492 1.114 0 2.756-.517 3.9-1.204v-2.328zm5.99-9.95h-4.16v13.213h4.16v-5.7c.915-2.438 1.89-3.871 3.412-3.871.657 0 1.373.288 2.468.975l1.144-3.671c-1.204-.886-1.92-1.204-2.756-1.204-1.602 0-2.985 1.293-4.219 4.04h-.06v-3.782m17.303 9.602c-.856.776-1.582 1.094-2.467 1.094-1.951 0-3.184-1.602-3.184-4.01 0-2.636 1.233-4.159 3.323-4.159.746 0 1.721.349 2.328.777v6.298zm4.159-15.94h-4.159v6.915c-1.114-.547-2.239-.835-3.442-.835-3.781 0-6.428 2.815-6.428 6.855 0 3.96 2.637 6.885 6.199 6.885 1.403 0 2.497-.368 3.671-1.323v1.064h4.159V9.801zM92.104 4.577H88.84L90.462.995l1.642 3.582zM90.63.04h-.318L86.8 7.7h.617l1.204-2.627h3.711L93.526 7.7h.617L90.631.04zm8.598.06h-4.15v7.6h4.239v-.488h-3.641V4.12h3.462v-.487h-3.463V.587h3.553V.099zm7.641.537C105.943.209 105.038 0 104.192 0c-2.079 0-3.989 1.582-3.989 3.91 0 2.229 1.731 3.89 4.049 3.89.886 0 1.821-.248 2.696-.716v-.607c-1.034.547-1.85.776-2.706.776-1.98 0-3.403-1.383-3.403-3.343 0-1.93 1.423-3.363 3.324-3.363.905 0 1.761.239 2.706.737V.637zm4.796-.159C111.068.159 110.49 0 109.903 0c-1.203 0-2.188.895-2.188 2.02 0 2.507 3.621 1.562 3.621 3.72 0 .857-.706 1.513-1.602 1.513-.587 0-1.064-.199-1.92-.816v.697c.667.448 1.333.667 1.95.667 1.234 0 2.209-.916 2.209-2.09 0-2.666-3.622-1.691-3.622-3.721 0-.826.687-1.453 1.602-1.453.528 0 .926.14 1.702.577V.478" fill="#000"/></svg>