<?xml version="1.0" encoding="UTF-8"?>
<svg width="140px" height="80px" viewBox="0 0 140 80" version="1.1" xmlns="http://www.w3.org/2000/svg" xmlns:xlink="http://www.w3.org/1999/xlink">
    <!-- Generator: Sketch 52.5 (67469) - http://www.bohemiancoding.com/sketch -->
    <title>im/logo-pay/visa</title>
    <desc>Created with Sketch.</desc>
    <defs>
        <linearGradient x1="0%" y1="0%" x2="100%" y2="100%" id="linearGradient-1">
            <stop stop-color="#2F3387" offset="0%"></stop>
            <stop stop-color="#181B62" offset="100%"></stop>
        </linearGradient>
    </defs>
    <g id="im/logo-pay/visa" stroke="none" stroke-width="1" fill="none" fill-rule="evenodd">
        <path d="M36.0842747,30.6571366 C32.6686835,28.3897847 29.6205485,27.5829863 29.0836401,27.4526419 C29.0286258,27.4399914 29,27.434052 29,27.434052 L29.1165101,27 L29.1232488,27 L39.6847753,27 C42.5917943,27 42.8637679,29.3124258 42.8637679,29.3124258 L45.1194274,40.8573848 L45.1187389,40.8560113 L45.874068,44.6587738 L52.2637262,27 L59.4761905,27 L48.814137,52.675 L41.8316453,52.675 L36.0842747,30.6571366 Z M64.6040065,52.675 L57.5714286,52.675 L61.9666995,27 L69,27 L64.6040065,52.675 Z M110.904762,52.675 L103.100382,52.675 L102.347169,48.8619356 L94.1793296,48.8619356 L92.8392573,52.675 L86.1428571,52.675 L95.7247035,28.9134001 C95.7247035,28.9134001 96.3049613,27 98.6906859,27 L105.760997,27 L110.904762,52.675 Z M87.139031,33.4086318 C84.4126122,31.8859266 78.2076366,31.5256525 78.2076366,34.3295533 C78.2076366,37.1334541 87.0991002,37.7339109 87.0991002,44.1830155 C87.0991002,50.3919374 80.5393301,52.675 76.192116,52.675 C71.8442472,52.675 69,51.2737131 69,51.2737131 L69.9478642,45.7050572 C72.5557999,47.8275558 80.4594687,48.428676 80.4594687,45.0641277 C80.4594687,41.6995794 71.6478665,41.6199608 71.6478665,35.211329 C71.6478665,28.4012869 79.1555008,27 82.3172301,27 C85.2419934,27 88.047619,28.0814856 88.047619,28.0814856 L87.139031,33.4086318 Z M96.6190476,44.775 L102.333333,44.775 L100.276276,34.9 L96.6190476,44.775 Z" id="Combined-Shape" fill="url(#linearGradient-1)"></path>
    </g>
</svg>