<?xml version="1.0" encoding="utf-8"?>
<!-- Generator: Adobe Illustrator 19.2.1, SVG Export Plug-In . SVG Version: 6.00 Build 0)  -->
<svg version="1.1" id="Ebene_1" xmlns="http://www.w3.org/2000/svg" xmlns:xlink="http://www.w3.org/1999/xlink" x="0px" y="0px"
	 viewBox="0 0 56 39" style="enable-background:new 0 0 56 39;" xml:space="preserve">
<style type="text/css">
	.st0{fill:#76B4CE;}
</style>
<path id="web_x5F_interface_x5F_white.svg" class="st0" d="M41.3,15C41.3,15,41.3,15,41.3,15l-8.7,0c-0.4,0-0.7-0.3-0.7-0.7
	c0-0.4,0.3-0.7,0.7-0.7c0,0,0,0,0,0l8.7,0c0.4,0,0.7,0.3,0.7,0.7C42,14.7,41.7,15,41.3,15z M42,21.7c0-0.4-0.3-0.7-0.7-0.7l-8.7,0
	c0,0,0,0,0,0c-0.4,0-0.7,0.3-0.7,0.7c0,0.4,0.3,0.7,0.7,0.7l8.7,0c0,0,0,0,0,0C41.7,22.5,42,22.1,42,21.7z M38.1,18
	c0-0.4-0.3-0.7-0.7-0.7l-4.8,0h0c-0.4,0-0.7,0.3-0.7,0.7c0,0.4,0.3,0.7,0.7,0.7l4.8,0h0C37.7,18.7,38.1,18.4,38.1,18z M9.1,29.2V5.3
	c0-1,0.4-1.4,0.9-1.4h36c0.5,0,0.9,0.4,0.9,0.9v24.8c0,0.5-0.4,0.9-0.9,0.9H10C9.5,30.6,9.1,30.2,9.1,29.2z M10.1,29.5H46V5.1H10.1
	V29.5z M56,34.4c0,0.8-0.4,1.8-1.1,2.6c-0.8,1-1.9,1.5-3,1.5l0,0H4c-0.1,0-0.1,0-0.1,0c-0.9,0-1.8-0.4-2.5-1.1
	c-0.8-0.8-1.4-2-1.4-3.1c0-2.2,1.5-2.2,2.2-2.2h3.3c-0.1-0.1-0.1-0.2-0.1-0.3V2.5c0-1.2,1-2.2,2.2-2.2h40.8c1.2,0,2.2,1,2.2,2.2
	v29.3c0,0.1-0.1,0.2-0.1,0.3h3.2C55.7,32.1,56,33.5,56,34.4z M6.9,31.8c0,0.2,0.1,0.3,0.3,0.3h41.6c0.2,0,0.3-0.1,0.3-0.3V2.2
	c0-0.2-0.1-0.3-0.3-0.3H7.3C7.1,1.9,6.9,2,6.9,2.2V31.8z M54.4,34.4c0-0.2,0-0.4,0-0.5c-0.1,0-22.3,0-22.3,0
	c0.1,0.1,0.1,0.3,0.1,0.5c0,0.5-0.4,0.9-1,0.9h-6.4c-0.5,0-1-0.3-1-0.9c0-0.1,0-0.3,0.1-0.5c0,0-22.2,0-22.2,0c0,0.1,0,0.3,0,0.5
	c0,0.4,0.3,1.5,0.8,2c0.4,0.4,0.8,0.5,1.3,0.5H52c0.7,0,1.5-0.5,1.8-0.8C54.2,35.5,54.4,34.7,54.4,34.4z M14,22v-8
	c0-0.9,0.6-1.6,1.4-1.6h11.4c0.8,0,1.4,0.7,1.4,1.6v8c0,0.9-0.6,1.6-1.4,1.6H15.4C14.6,23.5,14,22.8,14,22z M15.1,14v8
	c0,0.2,0.1,0.4,0.3,0.4h11.2c0.2,0,0.3-0.2,0.3-0.4v-8c0-0.2-0.1-0.4-0.3-0.4H15.4C15.3,13.6,15.1,13.8,15.1,14z"/>
</svg>
