<svg xmlns="http://www.w3.org/2000/svg" width="210" height="70" viewBox="0 0 210 70">
  <defs>
    <style>
      .cls-1 {
        
        fill-rule: evenodd;
      }
    </style>
  </defs>
  <path id="Logo_White" class="cls-1" d="M479.961,69.938a7.958,7.958,0,0,1-2.777,6.535q-2.776,2.272-7.9,2.272h-2.813V88.929h-4.424V61.708h7.793q5.071,0,7.6,2.085A7.506,7.506,0,0,1,479.961,69.938ZM466.467,75h2.351a8.384,8.384,0,0,0,5-1.191,4.349,4.349,0,0,0,1.592-3.724,4.238,4.238,0,0,0-1.425-3.5,7.013,7.013,0,0,0-4.443-1.154h-3.072V75Zm28.82-7.038a10.414,10.414,0,0,1,2.166.186l-0.426,4.078A8.169,8.169,0,0,0,495.1,72a5.557,5.557,0,0,0-4.23,1.713,6.213,6.213,0,0,0-1.62,4.45V88.929H484.9V68.337h3.406l0.573,3.631H489.1a8.146,8.146,0,0,1,2.657-2.923A6.285,6.285,0,0,1,495.287,67.964ZM519.406,78.6q0,5.046-2.573,7.876a9.191,9.191,0,0,1-7.163,2.83A9.771,9.771,0,0,1,504.6,88a8.585,8.585,0,0,1-3.387-3.742,12.8,12.8,0,0,1-1.185-5.66q0-5.009,2.555-7.82a9.235,9.235,0,0,1,7.2-2.811,8.992,8.992,0,0,1,7.033,2.876A11.152,11.152,0,0,1,519.406,78.6Zm-14.9,0q0,7.131,5.238,7.131,5.184,0,5.184-7.131,0-7.056-5.221-7.057a4.441,4.441,0,0,0-3.97,1.825A9.326,9.326,0,0,0,504.505,78.6Zm24.452-.186L522.09,68.337h4.961l4.665,7.206,4.7-7.206h4.924l-6.886,10.073,7.238,10.52h-4.925l-5.052-7.708-5.036,7.708h-4.923Zm13.216-10.073h4.739l4.165,11.674a22.294,22.294,0,0,1,1.258,4.692h0.149a19.668,19.668,0,0,1,.61-2.485q0.445-1.462,4.7-13.881h4.7l-8.755,23.33q-2.388,6.423-7.959,6.423a12.451,12.451,0,0,1-2.814-.316V94.31a10.142,10.142,0,0,0,2.24.224q3.147,0,4.424-3.668l0.759-1.936Zm-60.3,35.216h-2.3l-0.929,4.572h-0.03a2.908,2.908,0,0,0-2.817-1.392,5.021,5.021,0,0,0-4.979,4.334c-0.456,2.247.521,4.208,3.334,4.208a4.318,4.318,0,0,0,3.383-1.392h0.03c-0.074.364-.118,0.728-0.161,1.092h2.208c0.059-.443.187-1.218,0.318-1.867ZM478.065,111a3.264,3.264,0,0,1-2.979,2.753c-1.451,0-2.165-1.25-1.86-2.753a3.263,3.263,0,0,1,2.979-2.752c1.452,0,2.166,1.249,1.86,2.752m13.451-.854c0.565-2.784-1.514-3.417-3.646-3.417-1.966,0-4.167.49-4.809,2.531h2.389a2.035,2.035,0,0,1,2.07-1.107c1.149,0,2.028.364,1.742,1.772h-1.83c-2.9,0-5.258.426-5.763,2.91-0.231,1.139.428,2.436,3.089,2.436a5.627,5.627,0,0,0,3.882-1.392,8.933,8.933,0,0,0-.161,1.092H490.6c0.064-.538.138-0.981,0.245-1.5Zm-2.543,1.2a3.474,3.474,0,0,1-3.4,2.595c-1.315,0-1.59-.728-1.481-1.266,0.193-.949,1.253-1.329,2.992-1.329h1.89Zm9.384-6.739-0.492,2.421h2.707l-0.308,1.518h-2.707l-0.752,3.7c-0.177.87,0.074,1.345,0.952,1.345a6.389,6.389,0,0,0,1.45-.143l-0.309,1.519a16.683,16.683,0,0,1-1.979.142c-2.3,0-2.837-.775-2.458-2.641l0.8-3.924h-2.118l0.309-1.518h2.117l0.344-1.693Zm12.031,5.537c0.566-2.784-1.513-3.417-3.645-3.417-1.966,0-4.168.49-4.809,2.531h2.389a2.035,2.035,0,0,1,2.07-1.107c1.149,0,2.028.364,1.742,1.772h-1.83c-2.9,0-5.259.426-5.763,2.91-0.232,1.139.427,2.436,3.089,2.436a5.628,5.628,0,0,0,3.882-1.392,9.134,9.134,0,0,0-.162,1.092h2.117c0.064-.538.139-0.981,0.245-1.5Zm-2.543,1.2a3.473,3.473,0,0,1-3.4,2.595c-1.316,0-1.591-.728-1.482-1.266,0.193-.949,1.253-1.329,2.992-1.329h1.89Zm9.385-6.739-0.492,2.421h2.707l-0.309,1.518H516.43l-0.753,3.7c-0.177.87,0.075,1.345,0.952,1.345a6.4,6.4,0,0,0,1.451-.143l-0.309,1.519a16.7,16.7,0,0,1-1.98.142c-2.3,0-2.837-.775-2.457-2.641l0.8-3.924h-2.117l0.308-1.518h2.117l0.345-1.693Zm3.594,4.414c0.154-.759.266-1.456,0.345-1.993h2.207c-0.069.49-.135,0.965-0.235,1.455h0.03a3.112,3.112,0,0,1,2.838-1.614,6.688,6.688,0,0,1,1.45.159l-0.366,1.8a3.374,3.374,0,0,0-.471-0.063,5.82,5.82,0,0,0-.584-0.032c-1.859,0-3.028.839-3.471,3.022l-0.653,3.211h-2.3Zm16.015,1.123c0.566-2.784-1.513-3.417-3.645-3.417-1.966,0-4.168.49-4.809,2.531h2.389a2.035,2.035,0,0,1,2.07-1.107c1.149,0,2.028.364,1.742,1.772h-1.83c-2.9,0-5.258.426-5.763,2.91-0.232,1.139.427,2.436,3.089,2.436a5.628,5.628,0,0,0,3.882-1.392,9.134,9.134,0,0,0-.162,1.092h2.118c0.063-.538.138-0.981,0.244-1.5Zm-2.542,1.2a3.475,3.475,0,0,1-3.4,2.595c-1.315,0-1.591-.728-1.481-1.266,0.192-.949,1.252-1.329,2.991-1.329H534.3Zm5.182-2.436c0.142-.7.25-1.376,0.323-1.882h2.207c-0.06.443-.116,0.87-0.206,1.313h0.03a4.465,4.465,0,0,1,3.534-1.614c1.361,0,3.32.775,2.8,3.354l-0.993,4.888h-2.3l0.856-4.208c0.4-1.962-.371-2.42-1.474-2.42a3.13,3.13,0,0,0-2.928,2.8l-0.778,3.829h-2.3Zm12.526,3.623c-0.039,1.012.429,1.313,1.578,1.313,1.331,0,1.971-.4,2.089-0.981,0.081-.4-0.137-0.664-0.946-0.775l-1.733-.253c-2.542-.364-2.676-1.566-2.486-2.5,0.238-1.17,1.438-2.61,4.674-2.61,1.814,0,3.785.569,3.361,2.658h-2.389c0.111-.918-0.43-1.234-1.609-1.234a1.436,1.436,0,0,0-1.58.854c-0.087.427,0.028,0.68,1.139,0.87l2.149,0.364c1.623,0.269,2.1,1.186,1.864,2.357-0.289,1.424-1.541,2.673-4.6,2.673s-4.213-.553-3.966-2.736h2.45Zm-135.017-1.876a1.93,1.93,0,0,1-.675,1.587,2.955,2.955,0,0,1-1.919.552h-0.683v2.473h-1.074v-6.61h1.892a2.854,2.854,0,0,1,1.845.506A1.824,1.824,0,0,1,416.988,110.663Zm-3.277,1.23h0.571a2.033,2.033,0,0,0,1.213-.289,1.055,1.055,0,0,0,.387-0.9,1.028,1.028,0,0,0-.346-0.85,1.7,1.7,0,0,0-1.079-.281h-0.746v2.324Zm8.886,0.873a2.74,2.74,0,0,1-.624,1.912,2.231,2.231,0,0,1-1.74.688,2.37,2.37,0,0,1-1.231-.317,2.085,2.085,0,0,1-.823-0.909,3.1,3.1,0,0,1-.288-1.374,2.719,2.719,0,0,1,.621-1.9,2.238,2.238,0,0,1,1.748-.683,2.182,2.182,0,0,1,1.708.7A2.7,2.7,0,0,1,422.6,112.766Zm-3.618,0q0,1.731,1.272,1.731t1.259-1.731q0-1.715-1.268-1.714a1.079,1.079,0,0,0-.964.443A2.27,2.27,0,0,0,418.979,112.766Zm8.909,2.509-0.643-2.333q-0.117-.371-0.422-1.722h-0.041q-0.261,1.22-.413,1.731l-0.661,2.324h-1.169l-1.393-5h1.079l0.633,2.464q0.216,0.915.306,1.565h0.027c0.03-.22.075-0.473,0.137-0.757s0.115-.5.16-0.64l0.755-2.632H427.4l0.733,2.632q0.067,0.222.169,0.678a5.324,5.324,0,0,1,.119.71h0.036a14.151,14.151,0,0,1,.314-1.556l0.643-2.464h1.061l-1.4,5h-1.186Zm5.614,0.091a2.4,2.4,0,0,1-1.813-.681,2.588,2.588,0,0,1-.654-1.874,2.847,2.847,0,0,1,.606-1.926,2.093,2.093,0,0,1,1.668-.7,2.038,2.038,0,0,1,1.555.6,2.3,2.3,0,0,1,.571,1.654v0.574h-3.313a1.649,1.649,0,0,0,.391,1.119,1.355,1.355,0,0,0,1.039.392,3.789,3.789,0,0,0,.82-0.084,4.286,4.286,0,0,0,.816-0.278v0.863a3.2,3.2,0,0,1-.782.263A4.793,4.793,0,0,1,433.5,115.366Zm-0.193-4.377a1.059,1.059,0,0,0-.807.321,1.537,1.537,0,0,0-.362.936H434.4a1.387,1.387,0,0,0-.3-0.938A1.01,1.01,0,0,0,433.309,110.989Zm5.848-.805a2.54,2.54,0,0,1,.526.045l-0.1.991a1.933,1.933,0,0,0-.467-0.055,1.347,1.347,0,0,0-1.027.417,1.5,1.5,0,0,0-.393,1.08v2.613h-1.057v-5h0.827l0.139,0.882h0.054a1.988,1.988,0,0,1,.646-0.71A1.531,1.531,0,0,1,439.157,110.184Zm3.618,5.182a2.4,2.4,0,0,1-1.814-.681,2.592,2.592,0,0,1-.654-1.874,2.847,2.847,0,0,1,.607-1.926,2.093,2.093,0,0,1,1.668-.7,2.039,2.039,0,0,1,1.555.6,2.306,2.306,0,0,1,.571,1.654v0.574H441.4a1.649,1.649,0,0,0,.391,1.119,1.354,1.354,0,0,0,1.038.392,3.8,3.8,0,0,0,.821-0.084,4.286,4.286,0,0,0,.816-0.278v0.863a3.218,3.218,0,0,1-.782.263A4.793,4.793,0,0,1,442.775,115.366Zm-0.193-4.377a1.057,1.057,0,0,0-.807.321,1.537,1.537,0,0,0-.362.936h2.257a1.387,1.387,0,0,0-.3-0.938A1.011,1.011,0,0,0,442.582,110.989Zm5,4.377a1.729,1.729,0,0,1-1.452-.678,3.732,3.732,0,0,1,.007-3.819,1.745,1.745,0,0,1,1.463-.685,1.711,1.711,0,0,1,1.492.728h0.054a6.419,6.419,0,0,1-.077-0.85V108.24h1.061v7.035h-0.827l-0.184-.655h-0.05A1.685,1.685,0,0,1,447.585,115.366Zm0.283-.86a1.144,1.144,0,0,0,.948-0.368,1.947,1.947,0,0,0,.306-1.2v-0.149a2.252,2.252,0,0,0-.306-1.343,1.13,1.13,0,0,0-.957-0.4,0.971,0.971,0,0,0-.859.455,2.338,2.338,0,0,0-.3,1.3,2.292,2.292,0,0,0,.292,1.269A0.986,0.986,0,0,0,447.868,114.506Zm8.707-4.322a1.721,1.721,0,0,1,1.449.678,3.746,3.746,0,0,1-.006,3.818,1.907,1.907,0,0,1-2.927,0h-0.072l-0.193.592h-0.791V108.24h1.056v1.673c0,0.124-.006.307-0.018,0.551s-0.021.4-.027,0.466h0.045A1.676,1.676,0,0,1,456.575,110.184Zm-0.274.868a1.072,1.072,0,0,0-.92.378,2.209,2.209,0,0,0-.29,1.263v0.073a2.346,2.346,0,0,0,.288,1.322,1.067,1.067,0,0,0,.939.409,0.951,0.951,0,0,0,.852-0.447,2.391,2.391,0,0,0,.29-1.293Q457.46,111.052,456.3,111.052Zm2.714-.778h1.151l1.011,2.835a5.4,5.4,0,0,1,.306,1.14h0.036a4.769,4.769,0,0,1,.148-0.6q0.108-.354,1.142-3.371h1.141l-2.125,5.666a2.02,2.02,0,0,1-1.933,1.56,3.045,3.045,0,0,1-.684-0.077v-0.841a2.48,2.48,0,0,0,.544.054,1.116,1.116,0,0,0,1.075-.891l0.184-.47ZM388.221,67.648h-1.889V73.9h1.333a3.624,3.624,0,0,0,2.619-.931,3.39,3.39,0,0,0,.972-2.57Q391.256,67.648,388.221,67.648ZM433.884,47.5H352.5l30.09,62.586,72.55-22.477Zm-37.9,29.915q-2.675,2.485-7.6,2.486h-2.055v9.03h-7.311V61.708h9.366q5.127,0,7.7,2.253a8.06,8.06,0,0,1,2.573,6.4A9.146,9.146,0,0,1,395.985,77.413Zm19.445,5.874a12.092,12.092,0,0,0,3.48-.5,34.6,34.6,0,0,0,3.388-1.21v6.219a18.658,18.658,0,0,1-7.664,1.508q-6.126,0-9.393-3.575t-3.268-10.334a16.569,16.569,0,0,1,1.583-7.429,11.365,11.365,0,0,1,4.554-4.925,13.685,13.685,0,0,1,6.987-1.722,19.166,19.166,0,0,1,8.386,1.918l-2.24,5.791a25.19,25.19,0,0,0-3-1.191,10.429,10.429,0,0,0-3.221-.484,4.654,4.654,0,0,0-4.072,2.15,10.432,10.432,0,0,0-1.462,5.93Q409.489,83.288,415.43,83.288Zm12.143,5.642V61.708h7.349V88.929h-7.349Z" transform="translate(-352.5 -47.5)"/>
</svg>
