<svg xmlns="http://www.w3.org/2000/svg" xmlns:xlink="http://www.w3.org/1999/xlink" viewBox="0 0 146.59 168.31"><defs><style>.cls-1{fill:#fff;}.cls-2{fill:url(#Unbenannter_Verlauf_50);}</style><linearGradient id="Unbenannter_Verlauf_50" x1="6.46" y1="59.31" x2="146.59" y2="59.31" gradientUnits="userSpaceOnUse"><stop offset="0" stop-color="#9e2053"/><stop offset="1" stop-color="#c53b70"/></linearGradient></defs><title>Swissflag</title><g id="Ebene_2" data-name="Ebene 2"><g id="Swiss"><path class="cls-1" d="M41.82,168.2h0a1.9,1.9,0,0,1-2.43-1.31L.1,45.65a1.78,1.78,0,0,1,1.31-2.25h0a1.9,1.9,0,0,1,2.43,1.31l39.29,121A2.26,2.26,0,0,1,41.82,168.2Z"/><path class="cls-2" d="M54.92,104.4a105,105,0,0,1,15-4.3,91.37,91.37,0,0,1,17.4-1.68A124.26,124.26,0,0,0,112,96.35,76.61,76.61,0,0,0,126.39,92C138.17,87,143.6,80.26,146.59,75.4L122.08,0c-3,4.68-8.42,11.6-20.21,16.65A72.63,72.63,0,0,1,87.47,21,124.26,124.26,0,0,1,62.77,23a94.36,94.36,0,0,0-17.4,1.68,85.21,85.21,0,0,0-15,4.3c-9.92,3.74-18.9,9-23.95,14l24.32,75.58C36,113.19,45,108,54.92,104.4Z"/><path class="cls-1" d="M55.29,70.35,50.8,56.13c1.5-.37,3.18-.75,4.68-1.12a97.3,97.3,0,0,1,14.41-1.68L64.64,36.86h3c4.86,0,9.35-.19,13.66-.56l5.24,16.46c3.93-.37,7.67-.94,11-1.5,2.62-.56,5.24-1.12,7.67-1.87l4.49,14.22c-2.43.75-5.05,1.31-7.67,1.87A98.26,98.26,0,0,1,91,67l5.24,16.46c-4.3.37-8.79.56-13.66.56h-3L74.37,67.54A97.29,97.29,0,0,0,60,69.22c-1.5.37-3.18.75-4.68,1.12"/></g></g></svg>